<svg width="24" height="25" viewBox="0 0 24 25" fill="none" xmlns="http://www.w3.org/2000/svg">
<path d="M11.94 19.6658C12.36 19.6658 12.715 19.5208 13.005 19.2308C13.295 18.9408 13.44 18.5858 13.44 18.1658C13.44 17.7458 13.295 17.3908 13.005 17.1008C12.715 16.8108 12.36 16.6658 11.94 16.6658C11.52 16.6658 11.165 16.8108 10.875 17.1008C10.585 17.3908 10.44 17.7458 10.44 18.1658C10.44 18.5858 10.585 18.9408 10.875 19.2308C11.165 19.5208 11.52 19.6658 11.94 19.6658ZM12 24.4658C10.34 24.4658 8.78 24.1508 7.32 23.5208C5.86 22.8908 4.59 22.0358 3.51 20.9558C2.43 19.8758 1.575 18.6058 0.945 17.1458C0.315 15.6858 0 14.1258 0 12.4658C0 10.8058 0.315 9.24582 0.945 7.78582C1.575 6.32582 2.43 5.05582 3.51 3.97582C4.59 2.89582 5.86 2.04082 7.32 1.41082C8.78 0.78082 10.34 0.46582 12 0.46582C13.66 0.46582 15.22 0.78082 16.68 1.41082C18.14 2.04082 19.41 2.89582 20.49 3.97582C21.57 5.05582 22.425 6.32582 23.055 7.78582C23.685 9.24582 24 10.8058 24 12.4658C24 14.1258 23.685 15.6858 23.055 17.1458C22.425 18.6058 21.57 19.8758 20.49 20.9558C19.41 22.0358 18.14 22.8908 16.68 23.5208C15.22 24.1508 13.66 24.4658 12 24.4658ZM12 22.0658C14.68 22.0658 16.95 21.1358 18.81 19.2758C20.67 17.4158 21.6 15.1458 21.6 12.4658C21.6 9.78582 20.67 7.51582 18.81 5.65582C16.95 3.79582 14.68 2.86582 12 2.86582C9.32 2.86582 7.05 3.79582 5.19 5.65582C3.33 7.51582 2.4 9.78582 2.4 12.4658C2.4 15.1458 3.33 17.4158 5.19 19.2758C7.05 21.1358 9.32 22.0658 12 22.0658ZM12.12 7.30582C12.62 7.30582 13.055 7.46582 13.425 7.78582C13.795 8.10582 13.98 8.50582 13.98 8.98582C13.98 9.42582 13.845 9.81582 13.575 10.1558C13.305 10.4958 13 10.8158 12.66 11.1158C12.2 11.5158 11.795 11.9558 11.445 12.4358C11.095 12.9158 10.92 13.4558 10.92 14.0558C10.92 14.3358 11.025 14.5708 11.235 14.7608C11.445 14.9508 11.69 15.0458 11.97 15.0458C12.27 15.0458 12.525 14.9458 12.735 14.7458C12.945 14.5458 13.08 14.2958 13.14 13.9958C13.22 13.5758 13.4 13.2008 13.68 12.8708C13.96 12.5408 14.26 12.2258 14.58 11.9258C15.04 11.4858 15.435 11.0058 15.765 10.4858C16.095 9.96582 16.26 9.38582 16.26 8.74582C16.26 7.72582 15.845 6.89082 15.015 6.24082C14.185 5.59082 13.22 5.26582 12.12 5.26582C11.36 5.26582 10.635 5.42582 9.945 5.74582C9.255 6.06582 8.73 6.55582 8.37 7.21582C8.23 7.45582 8.185 7.71082 8.235 7.98082C8.285 8.25082 8.42 8.45582 8.64 8.59582C8.92 8.75582 9.21 8.80582 9.51 8.74582C9.81 8.68582 10.06 8.51582 10.26 8.23582C10.48 7.93582 10.755 7.70582 11.085 7.54582C11.415 7.38582 11.76 7.30582 12.12 7.30582Z" fill="white"/>
</svg>
